<?xml version="1.0" ?><svg enable-background="new 0 0 32 32" version="1.1" viewBox="0 0 32 32" xml:space="preserve" xmlns="http://www.w3.org/2000/svg" xmlns:xlink="http://www.w3.org/1999/xlink"><g id="Filled"><g><path d="M3.771,21.368c-0.91,0-1.626-0.331-2.149-0.994c-0.523-0.663-0.785-1.592-0.785-2.787    c0-1.232,0.223-2.407,0.668-3.523c0.446-1.117,1.031-1.982,1.755-2.596c0.724-0.613,1.52-0.919,2.387-0.919    c0.6,0,1.119,0.13,1.555,0.392c0.437,0.261,0.775,0.641,1.017,1.139h0.075l0.529-1.335h2.154l-2.21,10.438H6.64l0.13-1.354H6.733    C5.903,20.854,4.916,21.368,3.771,21.368z M4.866,19.1c0.427,0,0.839-0.208,1.235-0.625c0.396-0.417,0.715-0.982,0.957-1.695    c0.242-0.712,0.362-1.52,0.362-2.423c0-0.441-0.119-0.807-0.357-1.097c-0.238-0.289-0.553-0.434-0.942-0.434    c-0.421,0-0.822,0.224-1.203,0.672c-0.381,0.448-0.684,1.039-0.91,1.773s-0.339,1.463-0.339,2.184    c0,0.548,0.104,0.959,0.311,1.232C4.187,18.963,4.482,19.1,4.866,19.1z" fill="#6FD4F7"/><path d="M18.851,10.548c0.903,0,1.617,0.336,2.14,1.008c0.523,0.672,0.785,1.6,0.785,2.782    c0,1.183-0.211,2.326-0.632,3.431c-0.421,1.104-1,1.98-1.736,2.628s-1.551,0.971-2.442,0.971c-1.201,0-2.055-0.507-2.562-1.521    h-0.074l-0.538,1.335h-2.146l3.064-14.527h2.794l-0.576,2.689c-0.254,1.133-0.514,2.063-0.779,2.792h0.074    c0.482-0.61,0.923-1.027,1.323-1.251C17.944,10.66,18.38,10.548,18.851,10.548z M17.727,12.826c-0.421,0-0.823,0.203-1.207,0.607    c-0.384,0.405-0.7,0.966-0.947,1.686c-0.248,0.719-0.371,1.498-0.371,2.337c0,0.498,0.114,0.896,0.343,1.195    c0.229,0.299,0.545,0.448,0.947,0.448c0.415,0,0.811-0.215,1.188-0.645c0.378-0.429,0.683-1.019,0.915-1.768    c0.232-0.75,0.349-1.489,0.349-2.218C18.943,13.374,18.537,12.826,17.727,12.826z" fill="#6FD4F7"/><path d="M27.318,21.368c-1.244,0-2.199-0.334-2.864-1.004c-0.666-0.669-0.998-1.613-0.998-2.833    c0-1.319,0.23-2.519,0.691-3.599s1.109-1.914,1.945-2.502c0.836-0.588,1.789-0.882,2.86-0.882c1.127,0,2.142,0.224,3.046,0.672    l-0.854,2.138c-0.334-0.143-0.662-0.268-0.984-0.374c-0.322-0.105-0.688-0.159-1.096-0.159c-0.526,0-1.001,0.199-1.426,0.598    c-0.424,0.398-0.755,0.945-0.993,1.638c-0.238,0.694-0.357,1.439-0.357,2.236c0,0.598,0.141,1.047,0.423,1.349    c0.281,0.303,0.673,0.453,1.174,0.453c0.471,0,0.907-0.073,1.31-0.22c0.402-0.146,0.817-0.328,1.244-0.546v2.297    C29.498,21.123,28.458,21.368,27.318,21.368z" fill="#6FD4F7"/></g><g><rect height="2" width="26.097" x="2.952" y="25.203"/></g></g></svg>