<?xml version="1.0" ?><!DOCTYPE svg  PUBLIC '-//W3C//DTD SVG 1.1 Tiny//EN'  'http://www.w3.org/Graphics/SVG/1.1/DTD/svg11-tiny.dtd'><svg baseProfile="tiny" height="128px" id="Layer_1" overflow="scroll" version="1.1" viewBox="0 0 128 128" width="128px" xml:space="preserve" xmlns="http://www.w3.org/2000/svg" xmlns:xlink="http://www.w3.org/1999/xlink"><g><path d="M75.8,64H53.4c-3,0-5.5-2.5-5.5-5.5V36.1c0-3,2.4-5.5,5.5-5.5h22.4c3,0,5.5,2.5,5.5,5.5v22.4   C81.3,61.5,78.8,64,75.8,64" fill="#7ACCCE"/><path d="M77.4,47.3c0,7.1-5.7,12.8-12.8,12.8c-7.1,0-12.8-5.7-12.8-12.8c0-7.1,5.7-12.8,12.8-12.8   C71.7,34.6,77.4,40.3,77.4,47.3" fill="#EBF3E1"/><path d="M70.6,41.5c-0.3-0.8-1-1.5-2-1.9c-0.8-0.3-1.7-0.5-2.7-0.5c-0.8,0-1.5,0.2-2.1,0.6   c-2.3,1.5-3.7,3.5-4.3,5.8c-0.5,2.2-0.8,3.9-0.8,5c0,2.9,1,6.3,5.7,6.3c1.5,0,3-0.9,4.4-2.7c0.2-0.2,0.2-0.5,0-0.7l-0.3-0.4   c-0.1-0.1-0.3-0.2-0.4-0.2h0c-0.2,0-0.3,0.1-0.4,0.2c-0.6,0.8-1.1,1.3-1.5,1.6c-0.5,0.4-1.2,0.6-1.9,0.6c-0.4,0-0.7,0-1-0.1   c-0.8-0.1-1.4-0.8-2-2c-0.5-1.1-0.7-2.2-0.7-3.2c0-0.3,0.1-1,0.6-3c0.4-1.5,1-2.9,1.9-4c1-1.4,2.1-2.1,3.3-2.1   c0.6,0,1.2,0.2,1.8,0.5c0.9,0.5,0.9,1,0.9,1.2c0,2-0.7,2-0.9,2c0,0,0,0,0,0V44c0-0.1,0-0.1,0-0.2c-0.2-0.5-0.7-0.8-1.3-0.8   c-0.3,0-1.2,0.1-1.2,1.4c0,0.3,0.1,0.8,0.9,1.2c0.4,0.2,0.7,0.2,1.2,0.2c0.8,0,1.7-0.3,2.5-1c0.1,0,0.1-0.1,0.1-0.2   c0.4-0.9,0.6-1.8,0.6-2.8v-0.2C70.6,41.6,70.6,41.5,70.6,41.5" fill="#598185"/><path d="M75.8,30.7H64.1v3.9c0.2,0,0.3,0,0.5,0c7.1,0,12.8,5.7,12.8,12.8c0,7.1-5.7,12.8-12.8,12.8   c-0.2,0-0.3,0-0.5,0V64h11.7c3,0,5.5-2.4,5.5-5.5V36.1C81.3,33.1,78.8,30.7,75.8,30.7" fill="#71B8BC"/><path d="M64.6,34.6c-0.2,0-0.3,0-0.5,0v4.9c0.5-0.3,1.1-0.4,1.8-0.4c1,0,1.9,0.2,2.7,0.5c1,0.4,1.7,1.1,2,1.9   c0,0.1,0,0.1,0,0.2v0.2c0,1-0.2,1.9-0.6,2.8c0,0.1-0.1,0.1-0.1,0.2c-0.8,0.7-1.6,1-2.5,1c-0.4,0-0.8-0.1-1.2-0.2   c-0.8-0.4-0.9-0.9-0.9-1.2c0-1.3,1-1.4,1.2-1.4c0.6,0,1,0.3,1.3,0.8c0,0.1,0,0.1,0,0.2v0.2c0,0,0,0,0,0c0.2,0,0.9,0,0.9-2   c0-0.2,0-0.7-0.9-1.2c-0.6-0.3-1.2-0.5-1.8-0.5c-0.7,0-1.5,0.3-2.1,0.9V55c0,0,0.1,0,0.1,0c0.8,0,1.4-0.2,1.9-0.6   c0.4-0.3,0.9-0.8,1.5-1.6c0.1-0.1,0.3-0.2,0.4-0.2h0c0.2,0,0.3,0.1,0.4,0.2l0.3,0.4c0.1,0.2,0.1,0.5,0,0.7   c-1.4,1.8-2.9,2.7-4.4,2.7c-0.1,0-0.2,0-0.3,0v3.4c0.2,0,0.3,0,0.5,0c7.1,0,12.8-5.7,12.8-12.8C77.4,40.3,71.7,34.6,64.6,34.6" fill="#E2DED3"/><path d="M65.9,39c-0.7,0-1.3,0.1-1.8,0.4v2.1c0.7-0.6,1.4-0.9,2.1-0.9c0.6,0,1.2,0.2,1.8,0.5c0.9,0.5,0.9,1,0.9,1.2   c0,2-0.7,2-0.9,2c0,0,0,0,0,0V44c0-0.1,0-0.1,0-0.2c-0.2-0.5-0.7-0.8-1.3-0.8c-0.3,0-1.2,0.1-1.2,1.4c0,0.3,0.1,0.8,0.9,1.2   c0.4,0.2,0.7,0.2,1.2,0.2c0.8,0,1.7-0.3,2.5-1c0.1,0,0.1-0.1,0.1-0.2c0.4-0.9,0.6-1.8,0.6-2.8v-0.2c0-0.1,0-0.1,0-0.2   c-0.3-0.8-1-1.5-2-1.9C67.8,39.2,66.9,39,65.9,39 M68.1,52.7L68.1,52.7c-0.2,0-0.3,0.1-0.4,0.2c-0.6,0.8-1.1,1.3-1.5,1.6   c-0.5,0.4-1.2,0.6-1.9,0.6c0,0-0.1,0-0.1,0v1.6c0.1,0,0.2,0,0.3,0c1.5,0,3-0.9,4.4-2.7c0.1-0.2,0.2-0.5,0-0.7l-0.3-0.4   C68.4,52.7,68.2,52.7,68.1,52.7z" fill="#597671"/><path d="M94.4,97.3H72c-3,0-5.5-2.5-5.5-5.5V69.5c0-3,2.5-5.5,5.5-5.5h22.4c3,0,5.5,2.5,5.5,5.5v22.4   C99.8,94.9,97.4,97.3,94.4,97.3" fill="#F3D04C"/><path d="M96,80.7c0,7.1-5.7,12.8-12.8,12.8c-7.1,0-12.8-5.7-12.8-12.8c0-7.1,5.7-12.8,12.8-12.8   C90.2,67.9,96,73.6,96,80.7" fill="#EBF3E1"/><path d="M81.9,80.4c2.4,0.1,4,0.7,4.9,1.9c0.8,1.1,1.1,1.5,1.2,1.7c0.2,0.4,0.3,1.1,0.3,1.9c0,0.6-0.7,1.2-2,1.7   c-1.2,0.5-2.3,0.7-3.3,0.7h-0.8L81.9,80.4z M85.5,77.1c-0.3,0.4-0.7,0.7-1,1.1c-0.8,0.4-1.7,0.7-2.6,0.7l-0.2-6.2   c1.8,0.1,2.9,0.5,3.4,1.2c0.5,0.7,0.7,1.3,0.7,2C85.7,76.6,85.6,77,85.5,77.1z M89.9,84c-0.6-2.3-2.3-3.8-5.2-4.5   c1.9-0.7,2.9-1.9,2.9-3.4c0-1.7-0.7-3-2-3.7c-1.1-0.6-2.6-0.9-4.7-0.9c-0.7,0-1.6,0-2.5,0.1c-0.3,0-0.5,0.2-0.5,0.4v0.2l0,0l0,0.2   c0,0.1,0.1,0.3,0.2,0.3c0.1,0,0.2,0.1,0.3,0.1c0.1,0,0.1,0,0.2,0c0.1,0,0.3-0.1,1-0.1c0,1.7,0,4.2,0.1,7.6c0.1,3.4,0.1,6.1,0.1,8   h-1.3c-0.3,0-0.5,0.2-0.5,0.4l0,0.4c0,0.1,0,0.2,0.1,0.3c0.1,0.1,0.2,0.1,0.4,0.1H83c0.2,0,0.6,0,2.5-0.3c1.3-0.2,2.3-0.5,3.2-1.1   c1.1-0.7,1.6-1.6,1.6-2.7C90.3,85.4,90.3,85.3,89.9,84z" fill="#598185"/><path d="M94.4,64H83.2v3.9c7,0,12.8,5.7,12.8,12.8c0,7-5.7,12.8-12.8,12.8v3.9h11.2c3,0,5.5-2.5,5.5-5.5V69.5   C99.8,66.5,97.4,64,94.4,64" fill="#DFB747"/><path d="M83.2,67.9v3.8c1,0.1,1.8,0.4,2.4,0.8c1.3,0.7,2,2,2,3.7c0,1.5-1,2.6-2.9,3.4c2.9,0.7,4.7,2.2,5.2,4.5   c0.3,1.3,0.3,1.4,0.3,1.5c0,1.1-0.5,2-1.6,2.7c-0.8,0.6-1.9,0.9-3.2,1.1c-1.4,0.2-2,0.3-2.3,0.3v3.9c7,0,12.8-5.7,12.8-12.8   C96,73.6,90.2,67.9,83.2,67.9 M83.2,72.9v5.8c0.5-0.1,0.9-0.3,1.3-0.5c0.3-0.4,0.7-0.7,1-1.1c0.1-0.1,0.2-0.5,0.2-1.3   c0-0.6-0.2-1.3-0.7-2C84.7,73.5,84.1,73.1,83.2,72.9z M83.2,80.5v7.8c0.9,0,1.9-0.3,3-0.7c1.3-0.5,2-1.1,2-1.7   c0-0.8-0.1-1.5-0.3-1.9c-0.1-0.2-0.4-0.6-1.2-1.7C86,81.4,84.9,80.8,83.2,80.5z" fill="#E2DED3"/><path d="M83.2,71.6v1.3c0.9,0.2,1.5,0.5,1.8,1c0.5,0.7,0.7,1.3,0.7,2c0,0.8-0.1,1.1-0.2,1.3c-0.3,0.4-0.7,0.7-1,1.1   c-0.4,0.2-0.8,0.4-1.3,0.5v1.8c1.7,0.2,2.8,0.8,3.6,1.8c0.8,1.1,1.1,1.5,1.2,1.7c0.2,0.4,0.3,1.1,0.3,1.9c0,0.6-0.7,1.2-2,1.7   c-1.1,0.4-2.1,0.7-3,0.7v1.2c0.3,0,0.9-0.1,2.3-0.3c1.3-0.2,2.3-0.5,3.2-1.1c1.1-0.7,1.6-1.6,1.6-2.7c0-0.1,0-0.1-0.3-1.5   c-0.6-2.3-2.3-3.8-5.2-4.5c1.9-0.7,2.9-1.9,2.9-3.4c0-1.7-0.7-3-2-3.7C85,72,84.2,71.8,83.2,71.6" fill="#597671"/><path d="M56,97.3H33.6c-3,0-5.5-2.5-5.5-5.5V69.5c0-3,2.4-5.5,5.5-5.5H56c3,0,5.5,2.5,5.5,5.5v22.4   C61.5,94.9,59,97.3,56,97.3" fill="#CC5C2B"/><path d="M57.6,80.7c0,7.1-5.7,12.8-12.8,12.8c-7.1,0-12.8-5.7-12.8-12.8c0-7.1,5.7-12.8,12.8-12.8   C51.9,67.9,57.6,73.6,57.6,80.7" fill="#EBF3E1"/><path d="M44.2,80.9l1.2-4.2c0.4,1.1,1,3.2,1.2,4.1L44.2,80.9z M50.8,85.2c-0.1-0.1-0.2-0.1-0.4-0.1l0,0l-1.3,0.1   c-1.8-8.3-2.8-12.8-2.8-13.1c0-0.2-0.3-0.3-0.5-0.3h0c-0.2,0-0.4,0.1-0.5,0.3l-5.5,15.3l-1.1,0c-0.2,0-0.4,0.1-0.5,0.3L38,88   c0,0.1,0,0.3,0.1,0.4c0.1,0.1,0.3,0.2,0.4,0.2h0l3.9-0.3c0.3,0,0.5-0.2,0.5-0.4v-0.4c0-0.1-0.1-0.2-0.2-0.3   c-0.1-0.1-0.2-0.1-0.4-0.1l-0.6,0l1.9-4.9l3.1-0.1l0.7,3.2l-1,0c-0.2,0-0.4,0.1-0.5,0.3l-0.2,0.3c-0.1,0.1,0,0.3,0.1,0.4   c0.1,0.1,0.3,0.2,0.4,0.2l4.1-0.1c0.3,0,0.5-0.2,0.5-0.4v-0.4C51,85.4,51,85.3,50.8,85.2z" fill="#598185"/><path d="M56,64H44.8v3.9c7,0,12.8,5.7,12.8,12.8c0,7.1-5.7,12.8-12.8,12.8v3.9H56c3,0,5.5-2.5,5.5-5.5V69.5   C61.5,66.5,59,64,56,64" fill="#C0562E"/><path d="M44.8,67.9v5.4l0.5-1.3c0.1-0.2,0.3-0.3,0.5-0.3h0c0.2,0,0.5,0.2,0.5,0.3c0.1,0.4,1,4.8,2.8,13.1l1.3-0.1   l0,0c0.1,0,0.3,0,0.4,0.1c0.1,0.1,0.2,0.2,0.2,0.3v0.4c0,0.2-0.2,0.4-0.5,0.4l-4.1,0.1c-0.2,0-0.3-0.1-0.4-0.2   c-0.1-0.1-0.1-0.3-0.1-0.4l0.2-0.3c0.1-0.2,0.3-0.3,0.5-0.3l1,0l-0.7-3.2l-2,0.1v11.3c7,0,12.8-5.7,12.8-12.8   C57.6,73.6,51.9,67.9,44.8,67.9 M45.4,76.7l-0.5,1.9v2.3l1.7-0.1C46.4,79.9,45.7,77.8,45.4,76.7z" fill="#E2DED3"/><path d="M45.8,71.7c-0.2,0-0.4,0.1-0.5,0.3l-0.5,1.3v5.3l0.5-1.9c0.4,1.1,1,3.2,1.2,4.1l-1.7,0.1v1.3l2-0.1l0.7,3.2   l-1,0c-0.2,0-0.4,0.1-0.5,0.3l-0.2,0.3c-0.1,0.1,0,0.3,0.1,0.4c0.1,0.1,0.3,0.2,0.4,0.2l4.1-0.1c0.3,0,0.5-0.2,0.5-0.4v-0.4   c0-0.1-0.1-0.2-0.2-0.3c-0.1-0.1-0.2-0.1-0.4-0.1l0,0l-1.3,0.1c-1.8-8.3-2.8-12.8-2.8-13.1C46.3,71.8,46.1,71.7,45.8,71.7   L45.8,71.7z" fill="#597671"/></g></svg>