<?xml version="1.0" ?><svg viewBox="0 0 40 40" xmlns="http://www.w3.org/2000/svg"><defs><style>.cls-1{fill:#fff;stroke:#000;stroke-width:0.07px;}</style></defs><g id="Logos"><g id="abc"><circle cx="20.41" cy="20.8" r="15"/><path class="cls-1" d="M10.56,16.09a4.71,4.71,0,0,0,0,9.42,2.52,2.52,0,0,0,2.22-1.14v1h2.47V20.8A4.69,4.69,0,0,0,10.56,16.09Zm0,2.46A2.25,2.25,0,1,1,8.32,20.8a2.24,2.24,0,0,1,2.24-2.25Z" id="path3436"/><path class="cls-1" d="M15.85,12.84v8a4.7,4.7,0,1,0,4.7-4.71,2.54,2.54,0,0,0-2.23,1.13V12.84Zm4.7,5.71a2.25,2.25,0,1,1-2.24,2.25,2.24,2.24,0,0,1,2.24-2.25Z" id="path3438"/><path class="cls-1" d="M30.34,16.09a4.71,4.71,0,1,0,4.58,5.74h-2.6a2.24,2.24,0,1,1,0-2.07h2.59A4.69,4.69,0,0,0,30.34,16.09Z" id="path3440"/></g></g></svg>